HIERARCHY
ROOT Hips
{
	OFFSET 0.000000 88.474243 0.000000
	CHANNELS 6 Xposition Yposition Zposition Zrotation Yrotation Xrotation 
	JOINT Hips_Spine
	{
		OFFSET 0.000000 0.000000 0.000000
		CHANNELS 3 Zrotation Yrotation Xrotation
		JOINT Spine
		{
			OFFSET 0.005100 8.711998 -0.691000
			CHANNELS 3 Zrotation Yrotation Xrotation
			JOINT Spine1
			{
				OFFSET -0.009200 8.660301 -1.275000
				CHANNELS 3 Zrotation Yrotation Xrotation
				JOINT Spine2
				{
					OFFSET 0.006300 9.852501 -1.857000
					CHANNELS 3 Zrotation Yrotation Xrotation
					JOINT Spine2_Neck
					{
						OFFSET 0.000000 0.000000 0.000000
						CHANNELS 3 Zrotation Yrotation Xrotation
						JOINT Neck
						{
							OFFSET 0.016300 11.420799 -0.263300
							CHANNELS 3 Zrotation Yrotation Xrotation
							End Site #name: Head
							{
								OFFSET -0.019200 9.262405 2.362500
							}
						}
					}
					JOINT Spine2_LeftShoulder
					{
						OFFSET 0.000000 0.000000 0.000000
						CHANNELS 3 Zrotation Yrotation Xrotation
						JOINT LeftShoulder
						{
							OFFSET 5.616900 6.732201 -0.345700
							CHANNELS 3 Zrotation Yrotation Xrotation
							JOINT LeftArm
							{
								OFFSET 10.664888 -0.183372 -2.440700
								CHANNELS 3 Zrotation Yrotation Xrotation
								JOINT LeftForeArm
								{
									OFFSET 27.459126 0.000000 0.000000
									CHANNELS 3 Zrotation Yrotation Xrotation
									End Site #name: LeftHand
									{
										OFFSET 21.306858 0.000000 0.000000
									}
								}
							}
						}
					}
					JOINT Spine2_RightShoulder
					{
						OFFSET 0.000000 0.000000 0.000000
						CHANNELS 3 Zrotation Yrotation Xrotation
						JOINT RightShoulder
						{
							OFFSET -5.580300 6.737503 -0.344400
							CHANNELS 3 Zrotation Yrotation Xrotation
							JOINT RightArm
							{
								OFFSET -10.679335 -0.188484 -2.383900
								CHANNELS 3 Zrotation Yrotation Xrotation
								JOINT RightForeArm
								{
									OFFSET -27.503529 0.000000 0.000000
									CHANNELS 3 Zrotation Yrotation Xrotation
									End Site #name: RightHand
									{
										OFFSET -21.306808 0.000000 0.000000
									}
								}
							}
						}
					}
				}
			}
		}
	}
	JOINT Hips_LeftUpLeg
	{
		OFFSET 0.000000 0.000000 0.000000
		CHANNELS 3 Zrotation Yrotation Xrotation
		JOINT LeftUpLeg
		{
			OFFSET 6.857700 -6.739601 0.312100
			CHANNELS 3 Zrotation Yrotation Xrotation
			JOINT LeftLeg
			{
				OFFSET -0.367590 -34.731552 -4.572400
				CHANNELS 3 Zrotation Yrotation Xrotation
				End Site #name: LeftFoot
				{
					OFFSET 0.367590 -34.656704 -6.067400
				}
			}
		}
	}
	JOINT Hips_RightUpLeg
	{
		OFFSET 0.000000 0.000000 0.000000
		CHANNELS 3 Zrotation Yrotation Xrotation
		JOINT RightUpLeg
		{
			OFFSET -6.876100 -6.733299 0.301000
			CHANNELS 3 Zrotation Yrotation Xrotation
			JOINT RightLeg
			{
				OFFSET 0.347353 -34.795158 -4.515900
				CHANNELS 3 Zrotation Yrotation Xrotation
				End Site #name: RightFoot
				{
					OFFSET -0.347353 -34.589367 -6.070300
				}
			}
		}
	}
}
MOTION
Frames: 17
Frame Time: 0.041667
5.271767 0.766793 1.131207 -4.030262 -10.131295 -0.615032 -0.000000 -0.000000 0.000000 -0.295229 0.645927 4.366401 -0.796071 1.250973 8.606777 0.000000 0.000000 0.000000 -0.831052 1.246696 8.664990 1.485347 -2.257613 3.042192 -0.799347 1.242339 8.547739 2.924974 0.607093 0.409680 -73.474637 -11.875531 26.096830 179.734398 -86.724187 179.965409 -0.807741 1.229241 8.488668 -3.699764 -2.325827 1.013068 78.743007 -9.732372 4.250383 -174.289567 83.638711 -174.580357 -0.000000 -0.000000 0.000000 0.927215 1.365538 -20.446908 -1.212134 0.293547 29.362793 0.000000 0.000000 -0.000000 -7.883000 0.893681 -15.429934 0.277367 -0.858237 17.756692 
5.430233 0.801312 1.143565 -3.970472 -10.286927 -0.616078 -0.000000 -0.000000 0.000000 -0.289300 0.645427 4.329964 -0.773251 1.236548 8.521907 0.000000 0.000000 0.000000 -0.830587 1.232224 8.584502 1.232053 -2.538991 3.193085 -0.779283 1.230718 8.465998 2.868056 0.577338 0.393310 -73.558635 -11.410401 25.897461 179.633487 -86.905872 -179.924289 -0.793710 1.218795 8.412786 -3.660161 -2.271938 1.016215 78.883602 -9.920710 4.027758 -174.124526 83.691709 -174.423368 -0.000000 -0.000000 0.000000 0.741774 1.263874 -20.279848 -1.177416 0.278282 28.969137 0.000000 0.000000 -0.000000 -7.954276 1.164922 -15.394233 0.265590 -0.814118 17.449769 
5.578948 0.835716 1.152154 -3.922948 -10.492933 -0.614888 -0.000000 -0.000000 0.000000 -0.281973 0.643298 4.304065 -0.750748 1.227900 8.442569 0.000000 0.000000 0.000000 -0.822923 1.224679 8.520850 1.123794 -2.685759 3.217251 -0.760464 1.222491 8.390898 2.827305 0.569271 0.378191 -73.629235 -10.971542 25.720959 179.498800 -87.059483 -179.780239 -0.782342 1.215464 8.342573 -3.632499 -2.209143 1.019209 79.011306 -10.075886 3.847125 -174.050202 83.703564 -174.357998 -0.000000 -0.000000 0.000000 0.570328 1.167364 -20.102223 -1.134826 0.263300 28.588405 0.000000 0.000000 -0.000000 -8.051340 1.370758 -15.379541 0.252354 -0.798845 17.180566 
5.720675 0.866279 1.153745 -3.899376 -10.701906 -0.617009 -0.000000 -0.000000 0.000000 -0.273035 0.636028 4.289058 -0.729350 1.222881 8.371651 0.000000 0.000000 0.000000 -0.812227 1.216317 8.459106 1.028176 -2.802591 3.231390 -0.743322 1.216445 8.323506 2.799392 0.564560 0.368917 -73.696760 -10.566296 25.582251 179.303878 -87.186043 -179.576394 -0.771180 1.217917 8.278901 -3.591171 -2.146315 1.015002 79.131734 -10.169965 3.740752 -174.034362 83.667610 -174.350512 -0.000000 -0.000000 0.000000 0.401519 1.092294 -19.932792 -1.090099 0.251627 28.217654 0.000000 0.000000 -0.000000 -8.151303 1.504233 -15.404434 0.239032 -0.790635 16.985792 
5.855802 0.891462 1.147177 -3.903660 -10.895248 -0.628273 -0.000000 -0.000000 0.000000 -0.266295 0.625983 4.273488 -0.710124 1.223995 8.307994 0.000000 0.000000 0.000000 -0.799337 1.208935 8.398680 0.938281 -2.879694 3.194834 -0.728866 1.213323 8.266066 2.787532 0.565114 0.364755 -73.761836 -10.213847 25.474218 179.094056 -87.262534 -179.359301 -0.758513 1.225453 8.223149 -3.557324 -2.096071 1.001779 79.214462 -10.227479 3.673233 -174.077178 83.595817 -174.402479 -0.000000 -0.000000 0.000000 0.249254 1.042537 -19.758074 -1.052292 0.243625 27.865176 -0.000000 0.000000 -0.000000 -8.254235 1.587392 -15.458083 0.245898 -0.776051 16.846801 
5.975283 0.909997 1.133767 -3.905467 -11.084945 -0.641801 -0.000000 -0.000000 0.000000 -0.255327 0.612496 4.258399 -0.692342 1.231386 8.250224 0.000000 0.000000 0.000000 -0.785323 1.208215 8.347549 0.871242 -2.921888 3.135567 -0.715883 1.215589 8.215237 2.797910 0.577555 0.367986 -73.815230 -9.901486 25.364170 178.667028 -87.315755 -178.930110 -0.745393 1.235762 8.168917 -3.526075 -2.071552 0.988114 79.262388 -10.261133 3.648355 -174.130203 83.522490 -174.461631 -0.000000 -0.000000 0.000000 0.120738 1.030765 -19.594645 -1.029187 0.239289 27.559350 -0.000000 0.000000 -0.000000 -8.344088 1.626959 -15.536810 0.279339 -0.759136 16.780949 
6.071058 0.920039 1.113996 -3.905622 -11.253916 -0.664995 -0.000000 -0.000000 0.000000 -0.244250 0.599132 4.247242 -0.674721 1.244448 8.204568 0.000000 0.000000 0.000000 -0.771895 1.214660 8.309462 0.833224 -2.941123 3.064915 -0.704317 1.221867 8.167917 2.830158 0.596807 0.377098 -73.869412 -9.640050 25.252771 178.168120 -87.325246 -178.431016 -0.731752 1.245645 8.119429 -3.477137 -2.052930 0.979200 79.259102 -10.300865 3.654220 -174.190102 83.474455 -174.521647 -0.000000 -0.000000 0.000000 0.011447 1.050616 -19.460512 -1.022632 0.238702 27.340590 -0.000000 0.000000 -0.000000 -8.425180 1.629546 -15.622387 0.313738 -0.741184 16.783515 
6.135064 0.920770 1.088772 -3.897194 -11.382318 -0.704221 -0.000000 -0.000000 0.000000 -0.236751 0.583494 4.239586 -0.657058 1.259565 8.167124 0.000000 0.000000 0.000000 -0.758474 1.225881 8.280207 0.822838 -2.941176 3.002077 -0.693447 1.231041 8.126926 2.880674 0.616881 0.386582 -73.917475 -9.409026 25.158633 177.564988 -87.295839 -177.827922 -0.718528 1.255489 8.076103 -3.437941 -2.055382 0.966960 79.206175 -10.338709 3.676353 -174.258202 83.439443 -174.583503 -0.000000 -0.000000 0.000000 -0.071805 1.105418 -19.360322 -1.038061 0.239978 27.223731 -0.000000 0.000000 -0.000000 -8.497996 1.600248 -15.711184 0.351119 -0.718952 16.870586 
6.157226 0.915147 1.062702 -3.884015 -11.458484 -0.759225 -0.000000 -0.000000 0.000000 -0.228304 0.570512 4.239720 -0.640409 1.273550 8.137817 0.000000 0.000000 0.000000 -0.743277 1.240609 8.262929 0.844381 -2.921592 2.960801 -0.682256 1.242100 8.093270 2.939061 0.644061 0.396179 -73.937650 -9.230763 25.092114 176.949953 -87.285465 -177.211323 -0.704884 1.264688 8.042174 -3.400329 -2.070370 0.952664 79.124369 -10.386866 3.707871 -174.393885 83.358914 -174.705154 -0.000000 -0.000000 0.000000 -0.125342 1.195654 -19.323514 -1.067788 0.253187 27.263112 -0.000000 0.000000 -0.000000 -8.566276 1.538933 -15.791022 0.388493 -0.701118 16.980439 
6.129972 0.907364 1.039320 -3.820613 -11.470912 -0.814912 -0.000000 -0.000000 0.000000 -0.217446 0.562891 4.241622 -0.627248 1.286798 8.118109 0.000000 0.000000 0.000000 -0.729440 1.254616 8.256237 0.889360 -2.882488 2.919143 -0.672968 1.252295 8.072221 2.993712 0.665858 0.404862 -73.953560 -9.095334 25.069763 176.305390 -87.305771 -176.566047 -0.693377 1.272721 8.022220 -3.400621 -2.105706 0.937141 79.029614 -10.435625 3.749951 -174.533381 83.253029 -174.822876 -0.000000 -0.000000 0.000000 -0.142781 1.314043 -19.345999 -1.101104 0.266504 27.413943 -0.000000 0.000000 -0.000000 -8.622121 1.453434 -15.860534 0.425046 -0.681963 17.131916 
6.046479 0.899788 1.020802 -3.704069 -11.446291 -0.866131 -0.000000 -0.000000 0.000000 -0.205666 0.562231 4.244287 -0.618425 1.299137 8.102043 0.000000 0.000000 0.000000 -0.717035 1.266893 8.256385 0.955127 -2.814690 2.870205 -0.666172 1.262127 8.063225 3.045083 0.681917 0.410544 -73.950882 -9.020563 25.104315 175.655714 -87.370067 -175.916281 -0.684726 1.281176 8.019528 -3.420091 -2.138689 0.926725 78.944903 -10.508580 3.791635 -174.679674 83.097377 -174.941775 0.000000 0.000000 0.000000 -0.136058 1.441252 -19.407837 -1.117751 0.282581 27.638287 -0.000000 0.000000 -0.000000 -8.664535 1.358481 -15.915572 0.446993 -0.662973 17.293556 
5.899574 0.894466 1.008760 -3.533047 -11.388303 -0.917526 -0.000000 -0.000000 -0.000000 -0.194150 0.572924 4.237602 -0.614645 1.312144 8.086442 0.000000 0.000000 0.000000 -0.704983 1.277859 8.260371 1.032382 -2.720825 2.798634 -0.661464 1.271920 8.066854 3.080789 0.703755 0.412487 -73.939483 -8.963672 25.162140 174.911585 -87.482095 -175.171665 -0.679872 1.290284 8.032321 -3.450104 -2.178551 0.923182 78.896833 -10.588339 3.818391 -174.835808 82.900044 -175.066129 0.000000 0.000000 0.000000 -0.112231 1.560835 -19.474252 -1.117844 0.286183 27.889410 -0.000000 0.000000 -0.000000 -8.684739 1.266884 -15.926454 0.452232 -0.639833 17.437263 
5.682405 0.892967 1.004997 -3.303562 -11.301711 -0.974732 -0.000000 -0.000000 -0.000000 -0.186845 0.596578 4.207355 -0.614395 1.323594 8.064072 0.000000 0.000000 0.000000 -0.692321 1.287682 8.254015 1.112923 -2.600372 2.703359 -0.656522 1.282180 8.078073 3.100406 0.728629 0.412053 -73.910598 -8.924594 25.216877 173.946252 -87.668717 -174.205815 -0.678224 1.300388 8.050730 -3.518751 -2.181633 0.927663 78.851668 -10.713841 3.833939 -174.961713 82.736117 -175.164354 0.000000 0.000000 0.000000 -0.069666 1.662470 -19.498906 -1.100456 0.290584 28.022777 -0.000000 0.000000 -0.000000 -8.653698 1.202558 -15.882347 0.442402 -0.625604 17.537403 
5.396519 0.897528 1.009754 -3.045186 -11.185852 -1.039046 -0.000000 -0.000000 -0.000000 -0.180795 0.623598 4.187207 -0.614554 1.333914 8.035030 0.000000 0.000000 0.000000 -0.679263 1.302428 8.241613 1.186062 -2.452426 2.600161 -0.650992 1.294510 8.088482 3.107518 0.762082 0.407882 -73.903458 -8.866375 25.223330 172.628259 -87.929945 -172.888207 -0.675313 1.310491 8.061776 -3.598310 -2.127067 0.943455 78.798858 -10.835588 3.870349 -175.031129 82.619118 -175.216132 0.000000 0.000000 0.000000 -0.028091 1.704739 -19.409505 -1.074742 0.294783 28.007647 -0.000000 0.000000 -0.000000 -8.572667 1.177733 -15.771758 0.424691 -0.616604 17.571174 
5.043178 0.909700 1.023145 -2.758554 -11.032176 -1.129978 -0.000000 -0.000000 -0.000000 -0.172887 0.649160 4.179600 -0.610962 1.341003 7.996821 0.000000 0.000000 0.000000 -0.666199 1.322821 8.212419 1.258880 -2.282881 2.489716 -0.643920 1.307976 8.091249 3.101073 0.809619 0.401692 -73.911462 -8.776461 25.152708 170.856512 -88.219146 -171.115991 -0.667857 1.319423 8.062496 -3.689491 -2.048517 0.960688 78.742410 -10.952997 3.956429 -175.051218 82.532894 -175.224624 0.000000 0.000000 0.000000 0.025519 1.710165 -19.173872 -1.040849 0.297334 27.807420 -0.000000 0.000000 -0.000000 -8.452624 1.185153 -15.582596 0.416043 -0.612258 17.537195 
4.621895 0.935180 1.052120 -2.483364 -10.789127 -1.245393 -0.000000 -0.000000 -0.000000 -0.172703 0.670794 4.177675 -0.599163 1.347444 7.955383 0.000000 0.000000 0.000000 -0.652500 1.346296 8.164418 1.324051 -2.112279 2.388714 -0.634630 1.320643 8.078804 3.081336 0.880016 0.395103 -73.954138 -8.611567 24.996088 167.867245 -88.573435 -168.128869 -0.659641 1.324932 8.050575 -3.805196 -1.998173 0.985758 78.702146 -11.169323 3.989949 -174.964009 82.519846 -175.131113 0.000000 0.000000 0.000000 0.072697 1.684025 -18.829529 -1.009272 0.300269 27.471127 -0.000000 0.000000 -0.000000 -8.297880 1.216092 -15.311204 0.463349 -0.605072 17.477567 
4.135311 0.972420 1.096756 -2.229313 -10.505892 -1.386511 -0.000000 -0.000000 -0.000000 -0.181189 0.678098 4.160601 -0.577191 1.344866 7.901585 0.000000 0.000000 0.000000 -0.636832 1.369353 8.112407 1.365316 -1.953919 2.321620 -0.620991 1.332131 8.049759 3.052405 0.968495 0.390542 -74.057697 -8.337205 24.723103 161.310993 -89.017253 -161.575072 -0.649634 1.324483 8.022958 -3.935645 -1.968452 1.008920 78.699575 -11.354744 4.033320 -174.800319 82.563218 -174.966737 0.000000 0.000000 0.000000 0.130212 1.617968 -18.362632 -0.984589 0.295696 26.969945 -0.000000 0.000000 -0.000000 -8.112925 1.233537 -14.960468 0.477364 -0.624537 17.316340 
